<?xml version="1.0" standalone="no"?>
<!DOCTYPE svg PUBLIC "-//W3C//DTD SVG 20010904//EN"
 "http://www.w3.org/TR/2001/REC-SVG-20010904/DTD/svg10.dtd">
<svg version="1.0" xmlns="http://www.w3.org/2000/svg"
 width="382.000000pt" height="382.000000pt" viewBox="0 0 382.000000 382.000000"
 preserveAspectRatio="xMidYMid meet">
<metadata>
Created by potrace 1.14, written by Peter Selinger 2001-2017
</metadata>
<g transform="translate(0.000000,382.000000) scale(0.100000,-0.100000)"
fill="#000000" stroke="none">
<path d="M1504 2718 c-16 -12 -51 -42 -78 -66 -86 -76 -232 -181 -282 -203
-39 -18 -74 -23 -176 -27 -153 -5 -265 11 -463 68 -237 69 -321 74 -345 22
-83 -178 -116 -456 -75 -627 13 -54 17 -112 15 -255 -1 -138 2 -189 12 -202
35 -46 340 -75 673 -63 239 8 245 11 245 90 0 38 3 45 19 45 43 0 265 -32 421
-61 540 -100 652 -114 890 -106 207 7 319 24 720 113 421 92 593 145 651 200
24 23 27 35 33 129 9 135 -9 173 -109 223 -125 62 -284 86 -483 71 -172 -13
-306 -12 -372 2 -87 18 -261 66 -322 89 -69 26 -191 106 -306 202 -89 75 -107
88 -227 168 -168 112 -350 210 -390 210 -12 0 -35 -10 -51 -22z m87 -84 c22
-11 29 -20 24 -32 -16 -38 -16 -50 0 -66 23 -23 42 -20 70 10 23 25 24 25 55
9 24 -12 30 -21 24 -33 -4 -9 -8 -30 -8 -47 -1 -27 3 -30 31 -33 24 -2 35 2
45 17 16 26 26 26 58 1 20 -15 23 -21 13 -31 -16 -16 -17 -51 -1 -67 18 -18
43 -15 63 8 22 25 27 25 56 1 23 -18 23 -19 5 -46 -38 -58 20 -101 71 -53 l23
22 21 -21 c19 -19 20 -23 7 -49 -19 -38 -12 -63 18 -70 18 -5 32 0 49 16 l24
23 32 -20 c48 -31 23 -38 -147 -41 l-151 -4 -46 59 c-49 64 -160 173 -222 218
-22 17 -42 33 -45 36 -3 4 -47 34 -99 69 l-93 62 43 39 c24 21 45 38 47 39 2
0 17 -7 33 -16z m-125 -168 c93 -60 215 -157 298 -236 l89 -85 -149 -6 c-207
-9 -417 -49 -513 -98 -119 -61 -219 -170 -258 -283 l-18 -50 -165 7 c-270 10
-443 23 -493 36 -47 11 -47 12 -68 78 -15 47 -23 103 -26 194 -6 143 5 239 44
360 l24 78 47 -7 c26 -4 76 -15 112 -24 36 -10 108 -29 160 -44 211 -57 439
-73 565 -41 64 17 168 74 225 124 41 36 67 35 126 -3z m1000 -397 c32 -11 120
-36 194 -57 127 -34 144 -36 285 -36 83 -1 222 1 310 4 144 4 168 2 238 -18
110 -31 175 -66 183 -98 8 -33 5 -35 -91 -72 -114 -44 -195 -67 -405 -113
-531 -115 -607 -128 -835 -136 -202 -7 -318 6 -679 72 -311 57 -470 82 -573
91 -46 4 -83 8 -83 11 0 2 12 27 26 55 64 127 178 201 379 245 118 26 128 27
495 27 361 1 377 2 425 22 64 28 61 28 131 3z m1204 -356 c0 -11 -90 -49 -181
-78 -168 -53 -813 -188 -978 -205 -263 -26 -438 -11 -932 79 -413 76 -599 97
-627 69 -7 -7 -12 -35 -12 -63 l0 -52 -107 -6 c-202 -13 -488 -4 -607 19 l-36
6 0 98 0 98 45 -14 c57 -17 288 -32 605 -40 286 -6 371 -16 775 -90 639 -116
790 -114 1415 21 295 65 444 102 535 134 86 31 105 35 105 24z"/>
</g>
</svg>
